<svg width="59" height="8" viewBox="0 0 59 8" fill="none" xmlns="http://www.w3.org/2000/svg">
<path d="M0 0.0359995H2.172V2.544H4.032V0.0359995H6.204V6.876H4.032V3.924H2.172V6.876H0V0.0359995Z" fill="black"/>
<path d="M11.3777 5.376H9.38569L9.02569 6.876H6.81769L9.02569 0.0359995H11.8457L13.9577 6.876H11.7377L11.3777 5.376ZM10.3697 1.512L9.66169 4.044H11.0897L10.4177 1.512H10.3697Z" fill="black"/>
<path d="M16.5224 1.884C16.5224 2.052 16.6064 2.184 16.7744 2.28C16.9504 2.376 17.2224 2.48 17.5904 2.592C18.0304 2.736 18.3904 2.876 18.6704 3.012C18.9584 3.148 19.2064 3.36 19.4144 3.648C19.6304 3.936 19.7384 4.312 19.7384 4.776C19.7384 6.264 18.7704 7.008 16.8344 7.008C16.5144 7.008 16.1224 6.98 15.6584 6.924C15.2024 6.868 14.7864 6.796 14.4104 6.708C14.4264 6.54 14.4584 6.296 14.5064 5.976C14.5624 5.648 14.6144 5.404 14.6624 5.244C14.9424 5.284 15.3624 5.332 15.9224 5.388C16.4904 5.444 16.9184 5.472 17.2064 5.472C17.3744 5.472 17.4744 5.46 17.5064 5.436C17.5544 5.404 17.5904 5.352 17.6144 5.28C17.6464 5.2 17.6624 5.132 17.6624 5.076C17.6624 4.916 17.5864 4.796 17.4344 4.716C17.2824 4.628 17.0224 4.524 16.6544 4.404C16.2144 4.268 15.8504 4.128 15.5624 3.984C15.2744 3.84 15.0224 3.616 14.8064 3.312C14.5904 3.008 14.4824 2.608 14.4824 2.112C14.4824 1.76 14.5624 1.416 14.7224 1.08C14.8824 0.736 15.0464 0.504 15.2144 0.384C15.3424 0.296 15.6064 0.212 16.0064 0.132C16.4064 0.0519998 16.7824 0.0119998 17.1344 0.0119998C18.0304 0.0119998 18.7624 0.096 19.3304 0.264C19.3224 0.424 19.2944 0.644 19.2464 0.924C19.2064 1.204 19.1624 1.46 19.1144 1.692L18.8384 1.68C17.7984 1.608 17.1344 1.572 16.8464 1.572C16.7264 1.572 16.6584 1.576 16.6424 1.584C16.6104 1.6 16.5824 1.636 16.5584 1.692C16.5344 1.748 16.5224 1.812 16.5224 1.884Z" fill="black"/>
<path d="M20.7422 0.0359995H22.9142V2.544H24.7742V0.0359995H26.9462V6.876H24.7742V3.924H22.9142V6.876H20.7422V0.0359995Z" fill="black"/>
<path d="M30.9199 0C31.5679 0 32.1159 0.0599999 32.5639 0.18C33.0119 0.3 33.3679 0.532 33.6319 0.876C33.9039 1.212 34.0399 1.696 34.0399 2.328C34.0399 2.608 33.9959 2.896 33.9079 3.192C33.8279 3.48 33.7239 3.732 33.5959 3.948C33.4759 4.164 33.3679 4.304 33.2719 4.368C33.1599 4.448 32.9119 4.512 32.5279 4.56C32.1439 4.6 31.6919 4.62 31.1719 4.62C30.9879 4.62 30.7039 4.612 30.3199 4.596V6.876H28.1599V0.0359995C28.9999 0.0119998 29.9199 0 30.9199 0ZM31.8199 3.084C31.8999 2.98 31.9399 2.772 31.9399 2.46C31.9399 2.052 31.8519 1.764 31.6759 1.596C31.5079 1.428 31.2119 1.344 30.7879 1.344C30.6439 1.344 30.4879 1.356 30.3199 1.38V3.204C30.3999 3.212 30.5559 3.216 30.7879 3.216C31.4039 3.216 31.7479 3.172 31.8199 3.084Z" fill="#FFC250"/>
<path d="M38.6121 5.376H36.6201L36.2601 6.876H34.0521L36.2601 0.0359995H39.0801L41.1921 6.876H38.9721L38.6121 5.376ZM37.6041 1.512L36.8961 4.044H38.3241L37.6521 1.512H37.6041Z" fill="#FFC250"/>
<path d="M43.7568 1.884C43.7568 2.052 43.8408 2.184 44.0088 2.28C44.1848 2.376 44.4568 2.48 44.8248 2.592C45.2648 2.736 45.6248 2.876 45.9048 3.012C46.1928 3.148 46.4408 3.36 46.6488 3.648C46.8648 3.936 46.9728 4.312 46.9728 4.776C46.9728 6.264 46.0048 7.008 44.0688 7.008C43.7488 7.008 43.3568 6.98 42.8928 6.924C42.4368 6.868 42.0208 6.796 41.6448 6.708C41.6608 6.54 41.6928 6.296 41.7408 5.976C41.7968 5.648 41.8488 5.404 41.8968 5.244C42.1768 5.284 42.5968 5.332 43.1568 5.388C43.7248 5.444 44.1528 5.472 44.4408 5.472C44.6088 5.472 44.7088 5.46 44.7408 5.436C44.7888 5.404 44.8248 5.352 44.8488 5.28C44.8808 5.2 44.8968 5.132 44.8968 5.076C44.8968 4.916 44.8208 4.796 44.6688 4.716C44.5168 4.628 44.2568 4.524 43.8888 4.404C43.4488 4.268 43.0848 4.128 42.7968 3.984C42.5088 3.84 42.2568 3.616 42.0408 3.312C41.8248 3.008 41.7168 2.608 41.7168 2.112C41.7168 1.76 41.7968 1.416 41.9568 1.08C42.1168 0.736 42.2808 0.504 42.4488 0.384C42.5768 0.296 42.8408 0.212 43.2408 0.132C43.6408 0.0519998 44.0168 0.0119998 44.3688 0.0119998C45.2648 0.0119998 45.9968 0.096 46.5648 0.264C46.5568 0.424 46.5288 0.644 46.4808 0.924C46.4408 1.204 46.3968 1.46 46.3488 1.692L46.0728 1.68C45.0328 1.608 44.3688 1.572 44.0808 1.572C43.9608 1.572 43.8928 1.576 43.8768 1.584C43.8448 1.6 43.8168 1.636 43.7928 1.692C43.7688 1.748 43.7568 1.812 43.7568 1.884Z" fill="#FFC250"/>
<path d="M49.9326 1.884C49.9326 2.052 50.0166 2.184 50.1846 2.28C50.3606 2.376 50.6326 2.48 51.0006 2.592C51.4406 2.736 51.8006 2.876 52.0806 3.012C52.3686 3.148 52.6166 3.36 52.8246 3.648C53.0406 3.936 53.1486 4.312 53.1486 4.776C53.1486 6.264 52.1806 7.008 50.2446 7.008C49.9246 7.008 49.5326 6.98 49.0686 6.924C48.6126 6.868 48.1966 6.796 47.8206 6.708C47.8366 6.54 47.8686 6.296 47.9166 5.976C47.9726 5.648 48.0246 5.404 48.0726 5.244C48.3526 5.284 48.7726 5.332 49.3326 5.388C49.9006 5.444 50.3286 5.472 50.6166 5.472C50.7846 5.472 50.8846 5.46 50.9166 5.436C50.9646 5.404 51.0006 5.352 51.0246 5.28C51.0566 5.2 51.0726 5.132 51.0726 5.076C51.0726 4.916 50.9966 4.796 50.8446 4.716C50.6926 4.628 50.4326 4.524 50.0646 4.404C49.6246 4.268 49.2606 4.128 48.9726 3.984C48.6846 3.84 48.4326 3.616 48.2166 3.312C48.0006 3.008 47.8926 2.608 47.8926 2.112C47.8926 1.76 47.9726 1.416 48.1326 1.08C48.2926 0.736 48.4566 0.504 48.6246 0.384C48.7526 0.296 49.0166 0.212 49.4166 0.132C49.8166 0.0519998 50.1926 0.0119998 50.5446 0.0119998C51.4406 0.0119998 52.1726 0.096 52.7406 0.264C52.7326 0.424 52.7046 0.644 52.6566 0.924C52.6166 1.204 52.5726 1.46 52.5246 1.692L52.2486 1.68C51.2086 1.608 50.5446 1.572 50.2566 1.572C50.1366 1.572 50.0686 1.576 50.0526 1.584C50.0206 1.6 49.9926 1.636 49.9686 1.692C49.9446 1.748 49.9326 1.812 49.9326 1.884Z" fill="#FFC250"/>
<path d="M58.7723 5.28H57.0323V7.02H55.5683V5.28H53.8283V3.828H55.5683V2.088H57.0323V3.828H58.7723V5.28Z" fill="#FFC250"/>
</svg>
